<?xml version="1.0" encoding="iso-8859-1"?>
<!-- Generator: Adobe Illustrator 19.0.0, SVG Export Plug-In . SVG Version: 6.00 Build 0)  -->
<svg version="1.1" id="Capa_1" xmlns="http://www.w3.org/2000/svg" xmlns:xlink="http://www.w3.org/1999/xlink" x="0px" y="0px"
	 viewBox="0 0 512 512" style="enable-background:new 0 0 512 512;" xml:space="preserve">
<path style="fill:#FFB3C1;" d="M257.42,7.51v299.98C334.09,306.73,396,244.35,396,167.5v-20C396,70.65,334.09,8.27,257.42,7.51z"/>
<path style="fill:#FDDBDF;" d="M257.42,7.51C317.52,8.48,366,70.78,366,147.5v20c0,76.72-48.48,139.02-108.58,139.99
	c-0.47,0.01-0.95,0.01-1.42,0.01c-77.32,0-140-62.68-140-140v-20c0-77.32,62.68-140,140-140C256.47,7.5,256.95,7.5,257.42,7.51z"/>
<polygon style="fill:#DBFFF8;" points="163,337.5 256,480.36 349,337.5 "/>
<path style="fill:#008F80;" d="M163,337.5l30,83.5l-30,83.5H34.2C46.89,429.91,96.14,367.83,163,337.5z"/>
<path style="fill:#00786B;" d="M349,337.5l98.8,167h30C465.11,429.91,415.86,367.83,349,337.5z"/>
<path style="fill:#008F80;" d="M349,337.5c51.29,30.33,89.07,92.41,98.8,167H349L319,421L349,337.5z"/>
<polygon style="fill:#00D4BE;" points="349,337.5 349,504.5 319,504.5 289,435.975 319,367.45 "/>
<polygon style="fill:#06F5DD;" points="319,367.45 319,504.5 163,504.5 163,337.5 256,430.36 "/>
<path d="M256,315c81.332,0,147.5-66.168,147.5-147.5v-20C403.5,66.168,337.332,0,256,0S108.5,66.168,108.5,147.5v20
	C108.5,248.832,174.668,315,256,315z M123.5,147.5C123.5,74.439,182.939,15,256,15s132.5,59.439,132.5,132.5v20
	c0,73.061-59.439,132.5-132.5,132.5s-132.5-59.439-132.5-132.5V147.5z"/>
<path d="M206,165c4.143,0,7.5-3.357,7.5-7.5v-30c0-4.143-3.357-7.5-7.5-7.5s-7.5,3.357-7.5,7.5v30
	C198.5,161.643,201.857,165,206,165z"/>
<path d="M306,165c4.143,0,7.5-3.357,7.5-7.5v-30c0-4.143-3.357-7.5-7.5-7.5s-7.5,3.357-7.5,7.5v30
	C298.5,161.643,301.857,165,306,165z"/>
<path d="M256,225c15.861,0,30.07-10.047,35.357-25c1.381-3.905-0.666-8.19-4.571-9.571c-3.905-1.379-8.19,0.666-9.571,4.571
	c-3.172,8.972-11.697,15-21.215,15s-18.043-6.028-21.215-15c-1.381-3.906-5.667-5.952-9.571-4.571
	c-3.905,1.381-5.952,5.666-4.571,9.571C225.93,214.953,240.139,225,256,225z"/>
<path d="M485.194,503.242C472.246,427.12,422.49,362.607,352.099,330.67c-0.974-0.441-2.029-0.67-3.099-0.67H163
	c-1.069,0-2.125,0.229-3.099,0.67C89.509,362.608,39.753,427.121,26.806,503.242c-0.371,2.178,0.238,4.408,1.663,6.096
	c1.425,1.688,3.521,2.662,5.73,2.662h443.602c2.209,0,4.306-0.974,5.73-2.662C484.956,507.65,485.565,505.42,485.194,503.242z
	 M330.874,345L256,419.764L181.126,345H330.874z M155.5,349.512V444.5c0,4.143,3.357,7.5,7.5,7.5s7.5-3.357,7.5-7.5v-88.911
	l80.2,80.081c1.465,1.462,3.382,2.192,5.3,2.192s3.835-0.73,5.3-2.192l80.2-80.081V497h-171v-22.5c0-4.143-3.357-7.5-7.5-7.5
	s-7.5,3.357-7.5,7.5V497H43.268C56.763,433.464,97.912,379.482,155.5,349.512z M356.5,497V349.512
	c57.587,29.969,98.737,83.951,112.232,147.488H356.5z"/>
<g>
</g>
<g>
</g>
<g>
</g>
<g>
</g>
<g>
</g>
<g>
</g>
<g>
</g>
<g>
</g>
<g>
</g>
<g>
</g>
<g>
</g>
<g>
</g>
<g>
</g>
<g>
</g>
<g>
</g>
</svg>
